<svg width="142" height="38" viewBox="0 0 142 38" fill="none" xmlns="http://www.w3.org/2000/svg">
    <path d="M46.3964 15.1666C46.0212 14.6102 45.6461 14.1774 45.1459 13.8682C44.7082 13.5591 44.1455 13.3736 43.5827 13.3118C43.02 13.25 42.5198 13.4354 42.0196 13.6828C41.5194 13.9919 41.0817 14.3629 40.7066 14.9193C40.3314 15.4758 40.0188 16.094 39.7687 16.836C39.5811 17.5779 39.4561 18.3817 39.4561 19.2473C39.4561 20.1129 39.5811 20.9166 39.7687 21.6586C39.9563 22.4005 40.2689 23.0188 40.7066 23.5752C41.0817 24.1317 41.5194 24.5645 42.0196 24.8118C42.5198 25.1209 43.02 25.2446 43.5827 25.1828C44.1455 25.1828 44.6457 24.9354 45.1459 24.6263C45.5835 24.3172 46.0212 23.8844 46.3964 23.3279C46.709 22.7715 47.0216 22.1532 47.2092 21.4731C47.3968 20.793 47.5218 20.051 47.5218 19.2473C47.5218 18.4435 47.3968 17.7016 47.2092 17.0215C47.0216 16.3414 46.7715 15.6613 46.3964 15.1666Z" fill="white"/>
    <path d="M52.3987 6.69565C52.3362 6.44833 52.2111 6.26285 52.0861 6.07737C51.961 5.89188 51.836 5.7064 51.6484 5.58274C51.5233 5.45909 51.3358 5.39726 51.1482 5.33543L15.5087 0.327368C15.1961 0.26554 14.8835 0.327368 14.5708 0.389196C14.2582 0.512852 14.0081 0.636508 13.8205 0.883819C13.633 1.0693 13.5079 1.37844 13.3829 1.68758C13.2578 1.99672 13.2578 2.36769 13.2578 2.73866V35.3838C13.2578 35.7548 13.2578 36.1258 13.3829 36.4349C13.5079 36.744 13.633 36.9913 13.8831 37.2387C14.0706 37.4241 14.3207 37.6096 14.6334 37.7333C14.946 37.8569 15.1961 37.8569 15.5713 37.7951L51.2107 32.7252C51.3983 32.7252 51.5233 32.6016 51.7109 32.4779C51.836 32.3542 51.961 32.2306 52.0861 31.9833C52.2111 31.7978 52.3987 31.5505 52.4612 31.365C52.5237 31.1177 52.6488 30.8704 52.6488 30.6231V7.43758C52.5863 7.19027 52.4612 6.94296 52.3987 6.69565ZM33.516 15.9698C33.4535 16.1553 33.391 16.3408 33.3285 16.4645C33.2659 16.5881 33.1409 16.7118 33.0158 16.8354C32.9533 16.8354 32.9533 16.8973 32.8908 16.8973C32.8283 16.8973 32.8283 16.9591 32.7657 16.9591C32.7032 16.9591 32.7032 16.9591 32.6407 16.9591C32.5782 16.9591 32.5782 16.9591 32.5156 16.9591C32.3906 16.9591 32.3281 16.9591 32.203 16.8973C32.0779 16.8354 32.0154 16.8354 31.9529 16.7118C31.8904 16.6499 31.7653 16.5263 31.7028 16.4645C31.6403 16.3408 31.5777 16.2172 31.5152 16.0935C31.3276 15.537 31.015 15.0424 30.7649 14.6096C30.4523 14.1768 30.1397 13.8059 29.702 13.4349C29.3268 13.1258 28.8892 12.8784 28.4515 12.693C28.0138 12.5075 27.5136 12.3838 27.0759 12.3838C26.3256 12.322 25.6378 12.5075 25.0126 12.8166C24.3873 13.1258 23.7621 13.6204 23.2619 14.2387C22.7617 14.8569 22.324 15.5989 22.0739 16.4026C21.7613 17.2064 21.6362 18.1338 21.6362 19.1231C21.6362 20.1123 21.8238 21.0397 22.0739 21.8435C22.3865 22.6473 22.7617 23.3892 23.2619 24.0075C23.7621 24.6258 24.3248 25.1204 25.0126 25.4295C25.6378 25.7387 26.3256 25.9241 27.0759 25.8623C27.5136 25.8623 28.0138 25.7387 28.4515 25.5532C28.8892 25.3677 29.2643 25.1204 29.6395 24.8112C30.0146 24.5021 30.3898 24.1311 30.6399 23.6983C30.9525 23.2655 31.2026 22.8327 31.4527 22.2763C31.5152 22.1526 31.5777 22.029 31.6403 21.9671C31.7028 21.8435 31.7653 21.7817 31.8904 21.7198C31.9529 21.658 32.0779 21.5962 32.1405 21.5962C32.203 21.5344 32.3281 21.5344 32.4531 21.5344C32.5156 21.5344 32.5156 21.5344 32.5782 21.5344C32.6407 21.5344 32.6407 21.5344 32.7032 21.5962C32.7657 21.5962 32.7657 21.658 32.8283 21.658C32.8908 21.658 32.8908 21.7198 32.9533 21.7198C33.0784 21.8435 33.2034 21.9671 33.2659 22.0908C33.3285 22.2145 33.391 22.3999 33.4535 22.5854C33.516 22.7709 33.516 22.9564 33.516 23.1419C33.516 23.3274 33.4535 23.5128 33.391 23.6983C33.0784 24.4403 32.7032 25.1204 32.2655 25.7387C31.8279 26.3569 31.3276 26.9134 30.8274 27.3462C30.2647 27.779 29.702 28.1499 29.0767 28.4591C28.4515 28.7064 27.7637 28.8919 27.0759 28.9537C26.013 29.0155 25.0126 28.8301 24.0122 28.3973C23.0743 27.9645 22.1364 27.2225 21.3861 26.3569C20.6358 25.4295 20.0106 24.3784 19.5729 23.1419C19.1352 21.9053 18.8851 20.5451 18.8851 19.0612C18.8851 17.6392 19.1352 16.2172 19.5729 14.9806C20.0106 13.744 20.6358 12.6311 21.3861 11.7655C22.1364 10.8999 23.0118 10.2198 24.0122 9.72522C24.9501 9.29242 26.013 9.10694 27.0759 9.16876C27.7637 9.23059 28.4515 9.41608 29.1393 9.72522C29.7645 10.0344 30.3898 10.4053 30.9525 10.8999C31.5152 11.3946 32.0154 11.951 32.4531 12.5693C32.8908 13.1876 33.2659 13.9295 33.5786 14.7333C33.6411 14.9188 33.7036 15.1042 33.7036 15.2897C33.5786 15.5989 33.516 15.7844 33.516 15.9698ZM48.7722 22.4618C48.5221 23.451 48.0844 24.3784 47.6468 25.1822C47.1466 25.986 46.5213 26.6042 45.8961 27.0989C45.2083 27.5935 44.458 27.9026 43.6451 27.9645C42.8323 28.0263 42.082 27.8408 41.3317 27.4698C40.5814 27.0989 39.9561 26.4806 39.3934 25.6768C38.8307 24.8731 38.3305 23.9456 38.0179 22.8327C37.7052 21.7198 37.5177 20.5451 37.5177 19.2467C37.5177 17.9483 37.7052 16.7736 38.0179 15.6607C38.3305 14.6096 38.8307 13.6204 39.3934 12.8166C39.9561 12.0129 40.6439 11.4564 41.3317 11.0236C42.082 10.6526 42.8323 10.4672 43.6451 10.529C44.458 10.5908 45.2083 10.8999 45.8961 11.3946C46.5838 11.8892 47.1466 12.5075 47.6468 13.3112C48.147 14.115 48.5221 14.9806 48.7722 16.0317C49.0223 17.0209 49.2099 18.1338 49.2099 19.2467C49.1474 20.4215 49.0223 21.4725 48.7722 22.4618Z" fill="white"/>
    <path d="M10.8197 0.884173C10.6321 0.698689 10.3195 0.513205 10.0694 0.389549C9.75674 0.265893 9.50663 0.265893 9.13148 0.327721L1.56591 1.56428C1.37834 1.56428 1.25329 1.68794 1.06571 1.81159C0.940658 1.93525 0.815607 2.12073 0.690557 2.30622C0.565506 2.4917 0.502981 2.73901 0.440455 2.9245C0.37793 3.17181 0.37793 3.41912 0.37793 3.66643V34.3331C0.37793 34.5804 0.37793 34.8277 0.440455 35.075C0.502981 35.3223 0.565506 35.5078 0.690557 35.6933C0.815607 35.8788 0.940658 36.0643 1.06571 36.1879C1.19076 36.3116 1.37834 36.3734 1.56591 36.4352L9.19401 37.6718C9.50663 37.7336 9.81926 37.6718 10.1319 37.61C10.4445 37.4863 10.6946 37.3627 10.8822 37.1154C11.0698 36.9299 11.2573 36.6207 11.3824 36.3116C11.5074 36.0024 11.57 35.6315 11.57 35.2605V2.67718C11.57 2.30622 11.5074 1.93525 11.3824 1.62611C11.1948 1.31697 11.0698 1.06966 10.8197 0.884173Z" fill="white"/>
    <path d="M57.338 23.5135C57.7131 23.0189 58.4634 22.957 58.9636 23.3898C59.964 24.1936 61.6522 25.121 63.2154 25.0592C64.3408 25.0592 65.3412 24.75 65.9665 24.2554C66.6543 23.7608 66.9044 23.2043 66.9044 22.6479C66.9044 22.3388 66.8418 22.1533 66.7168 21.9678C66.5917 21.7205 66.4042 21.535 66.029 21.2877C65.4038 20.8549 64.2783 20.4839 62.9653 20.2366H62.9027C61.8398 20.0511 60.9019 19.8038 60.0266 19.371C59.2137 19 58.4634 18.4436 57.9632 17.6398C57.6506 17.0834 57.463 16.5269 57.463 15.8468C57.463 14.5484 58.2133 13.3737 59.2137 12.6318C60.2767 11.8898 61.5897 11.457 63.0278 11.457C65.1537 11.457 66.7168 12.5081 67.8422 13.1882C68.3424 13.5592 68.53 14.2393 68.1549 14.7339C67.8422 15.2904 67.0919 15.414 66.5917 15.0431C65.4663 14.3011 64.4034 13.621 63.0278 13.621C62.0274 13.621 61.152 13.9302 60.5268 14.3629C59.9015 14.7957 59.7139 15.2904 59.7139 15.7232C59.7139 15.9705 59.7765 16.156 59.839 16.3414C59.9641 16.5269 60.1516 16.7124 60.4643 16.8979C61.027 17.2689 62.0274 17.6398 63.2154 17.8871H63.2779C64.4034 18.1345 65.4663 18.3818 66.3416 18.8146C67.2795 19.2474 68.0298 19.8038 68.53 20.6076C68.8426 21.164 69.0928 21.7823 69.0928 22.4624C69.0928 23.8844 68.2799 25.0592 67.217 25.8629C66.1541 26.6667 64.716 27.0995 63.0903 27.0995C60.7144 27.0995 58.651 25.9248 57.4005 24.9355C57.0254 24.75 56.9628 24.0081 57.338 23.5135Z" fill="white"/>
    <path d="M78.4093 21.3497H75.6582V26.1104C75.6582 26.7906 75.0955 27.2852 74.4077 27.2852C73.7199 27.2852 73.2197 26.7287 73.2197 26.1104V13.1884C73.2197 12.5083 73.7825 12.0137 74.4077 12.0137H78.3468C80.9729 12.0137 83.0987 14.1158 83.0987 16.7126C83.1613 19.2475 81.0354 21.3497 78.4093 21.3497ZM75.7207 18.9384H78.4719C79.7849 18.9384 80.7228 17.9492 80.7853 16.7126C80.7853 15.4142 79.7849 14.425 78.4719 14.425H75.7207V18.9384Z" fill="white"/>
    <path d="M93.415 23.6985H88.0379L86.9749 26.5426C86.7873 27.0372 86.2871 27.2845 85.8495 27.2845C85.7244 27.2845 85.5368 27.2845 85.4118 27.2227C84.7865 26.9754 84.4739 26.2953 84.6615 25.6152L89.5385 12.6931C89.726 12.1985 90.2262 11.8894 90.7264 11.9512C91.2266 11.9512 91.7269 12.2603 91.9144 12.6931L96.7914 25.6152C97.0415 26.2335 96.7289 26.9754 96.0411 27.2227C95.916 27.2845 95.791 27.2845 95.6034 27.2845C95.1032 27.2845 94.6655 26.9754 94.478 26.5426L93.415 23.6985ZM92.4772 21.2872L90.6639 16.5883L88.8507 21.2872H92.4772Z" fill="white"/>
    <path d="M99.042 19.4325C99.042 15.1046 102.731 11.5804 107.17 11.5186C109.109 11.5186 110.922 12.1368 112.297 13.2497C112.86 13.6825 112.923 14.4245 112.547 14.9809C112.11 15.5374 111.297 15.5992 110.797 15.2282C109.796 14.4245 108.608 14.0535 107.233 14.0535C105.732 14.0535 104.294 14.6718 103.231 15.661C102.231 16.6503 101.606 18.0105 101.606 19.4944C101.606 20.9782 102.231 22.3384 103.231 23.3277C104.294 24.3169 105.67 24.9352 107.233 24.9352C108.608 24.9352 109.796 24.5024 110.797 23.7605C111.297 23.3895 112.11 23.4514 112.547 24.0078C112.923 24.5643 112.86 25.368 112.297 25.739C110.922 26.7901 109.109 27.4702 107.17 27.4702C102.794 27.3465 99.1045 23.8223 99.042 19.4325Z" fill="white"/>
    <path d="M116.55 26.1104V13.1884C116.55 12.5083 117.113 12.0137 117.738 12.0137C117.738 12.0137 117.738 12.0137 117.8 12.0137H124.991C125.616 12.0137 126.179 12.5701 126.179 13.1884C126.179 13.8067 125.616 14.425 124.991 14.425H118.988V18.4438H124.178C124.866 18.4438 125.366 19.0002 125.366 19.6185C125.366 20.2986 124.803 20.8551 124.178 20.8551H118.988V24.8739H124.991C125.616 24.8739 126.179 25.4303 126.179 26.1104C126.179 26.7906 125.616 27.2852 124.991 27.2852H117.8C117.738 27.2852 117.738 27.2852 117.738 27.2852C117.05 27.347 116.55 26.7906 116.55 26.1104Z" fill="white"/>
    <path d="M129.805 23.5135C130.18 23.0189 130.93 22.957 131.43 23.3898C132.431 24.1936 134.119 25.121 135.682 25.0592C136.808 25.0592 137.808 24.75 138.433 24.2554C139.121 23.7608 139.371 23.2043 139.371 22.6479C139.371 22.3388 139.309 22.1533 139.184 21.9678C139.059 21.7205 138.871 21.535 138.496 21.2877C137.871 20.8549 136.745 20.4839 135.432 20.2366H135.37C134.307 20.0511 133.369 19.8038 132.493 19.371C131.681 19 130.93 18.4436 130.43 17.6398C130.117 17.0834 129.93 16.5269 129.93 15.8468C129.93 14.5484 130.68 13.3737 131.681 12.6318C132.743 11.8898 134.057 11.457 135.495 11.457C137.62 11.457 139.184 12.5081 140.309 13.1882C140.809 13.5592 140.997 14.2393 140.622 14.7339C140.309 15.2904 139.559 15.414 139.059 15.0431C137.933 14.3011 136.87 13.621 135.495 13.621C134.494 13.621 133.619 13.9302 132.994 14.3629C132.368 14.7957 132.181 15.2904 132.181 15.7232C132.181 15.9705 132.243 16.156 132.306 16.3414C132.431 16.5269 132.618 16.7124 132.931 16.8979C133.494 17.2689 134.494 17.6398 135.682 17.8871H135.745C136.87 18.1345 137.933 18.3818 138.808 18.8146C139.746 19.2474 140.497 19.8038 140.997 20.6076C141.309 21.164 141.56 21.7823 141.56 22.4624C141.56 23.8844 140.747 25.0592 139.684 25.8629C138.621 26.6667 137.183 27.0995 135.557 27.0995C133.181 27.0995 131.118 25.9248 129.867 24.9355C129.492 24.75 129.43 24.0081 129.805 23.5135Z" fill="white"/>
</svg>
