<svg width="150" height="35" viewBox="0 0 150 35" fill="none" xmlns="http://www.w3.org/2000/svg">
    <path d="M8.12431 8.18618L19.0394 2.98633L23.595 5.86235L24.7915 12.0976L17.5508 15.6523C15.9945 16.4138 14.1997 16.5265 12.5604 15.9657C10.9211 15.4049 9.5714 14.2164 8.80766 12.6613C8.72483 12.4887 8.6466 12.3139 8.57757 12.1367C8.19334 11.1335 7.83901 10.2247 7.58362 9.58508C7.47715 9.32706 7.4739 9.03798 7.57453 8.77763C7.67516 8.51727 7.87199 8.30553 8.12431 8.18618Z" fill="url(#paint0_linear_2825_3858)"/>
    <path d="M29.7152 27.4161L18.6713 32.3215L14.1962 29.3304L13.1654 23.0699L20.5119 19.7107C22.0879 18.9902 23.8855 18.9247 25.5098 19.5287C27.1341 20.1326 28.4522 21.3567 29.1745 22.9318C29.2527 23.1067 29.3264 23.2839 29.3908 23.4656C29.7497 24.478 30.081 25.3983 30.3111 26.0449C30.4052 26.3063 30.3959 26.5938 30.2851 26.8487C30.1744 27.1035 29.9705 27.3065 29.7152 27.4161Z" fill="url(#paint1_linear_2825_3858)"/>
    <path d="M5.53816 28.5713L0.517772 2.96313C0.471409 2.72297 0.516515 2.47415 0.64423 2.26555C0.771946 2.05695 0.973041 1.90364 1.20802 1.83573L2.58851 1.41928C3.53363 1.13355 4.52577 1.03682 5.50828 1.13462C6.49079 1.23242 7.4444 1.52282 8.31465 1.98925C9.1849 2.45567 9.95473 3.08898 10.5802 3.85299C11.2056 4.617 11.6744 5.49674 11.9598 6.44197C12.0288 6.67205 12.0886 6.90213 12.1369 7.14602L16.2968 28.0168C16.6607 29.6485 17.4847 31.1416 18.6712 32.3193L16.7961 33.1775C11.8976 35.8833 6.74839 33.0072 5.53816 28.5713Z" fill="url(#paint2_linear_2825_3858)"/>
    <path d="M32.2668 6.38919L37.9752 31.8524C38.0299 32.0905 37.9937 32.3405 37.8736 32.5533C37.7536 32.7661 37.5584 32.9264 37.3263 33.0028L35.9597 33.4629C34.0661 34.0903 32.001 33.9401 30.2182 33.0452C28.4355 32.1504 27.081 30.5842 26.4527 28.691C26.3775 28.461 26.3131 28.2309 26.2594 28.0008L21.5289 7.24739C21.123 5.62375 20.2588 4.15103 19.0394 3.00468L20.8801 2.08435C25.7141 -0.743354 30.937 1.97391 32.2668 6.38919Z" fill="url(#paint3_linear_2825_3858)"/>
    <path d="M55.3615 23.227H61.3029V26.0921H51.75V8.09772H55.3615V23.227Z" fill="white"/>
    <path d="M76.7725 20.0299H66.3249C66.3586 20.9476 66.7472 21.8164 67.4089 22.4531C68.0481 23.0382 68.8891 23.353 69.7553 23.3313C71.0964 23.3313 72.0514 22.755 72.6204 21.6024H76.5145C76.1175 22.961 75.2866 24.1523 74.1489 24.9943C72.9799 25.8798 71.5446 26.3226 69.8431 26.3226C68.551 26.3416 67.2759 26.0268 66.1411 25.4087C65.0577 24.8081 64.1706 23.9076 63.5861 22.8154C62.9581 21.6239 62.6427 20.2925 62.6696 18.9459C62.6416 17.5929 62.9519 16.2544 63.5724 15.0518C64.1455 13.963 65.0252 13.0662 66.1027 12.4721C67.2444 11.8828 68.5097 11.573 69.7946 11.5683C71.0794 11.5635 72.347 11.8639 73.493 12.4447C74.5515 13.0126 75.4206 13.8778 75.9931 14.9338C76.6042 16.0704 76.9114 17.3456 76.885 18.6358C76.886 19.1028 76.8483 19.5691 76.7725 20.0299ZM73.1363 17.604C73.1438 17.1807 73.0574 16.7611 72.8833 16.3753C72.7091 15.9895 72.4515 15.6471 72.1291 15.3728C71.4594 14.809 70.6057 14.5111 69.7306 14.5358C68.9007 14.5142 68.0934 14.8085 67.4721 15.3591C66.837 15.9499 66.439 16.7519 66.3524 17.6149L73.1363 17.604Z" fill="white"/>
    <path d="M79.4427 15.0518C79.967 13.9886 80.7802 13.0946 81.789 12.4721C82.7874 11.8659 83.9363 11.553 85.1041 11.5692C86.0767 11.5445 87.0396 11.7664 87.9033 12.2142C88.6581 12.6037 89.3148 13.1592 89.8243 13.8388V11.7998H93.4605V26.092H89.8271V24.0146C89.3291 24.7154 88.6703 25.2866 87.9061 25.6804C87.034 26.1307 86.0634 26.3561 85.0822 26.3363C83.9185 26.3475 82.7758 26.0257 81.789 25.4087C80.7828 24.7664 79.9714 23.861 79.4427 22.7907C78.8535 21.5826 78.5618 20.2512 78.5919 18.9075C78.5601 17.5724 78.852 16.2495 79.4427 15.0518ZM89.3221 16.6983C89.0027 16.0908 88.5173 15.5864 87.9225 15.2439C87.3509 14.9119 86.701 14.7385 86.0399 14.7416C85.3759 14.734 84.7225 14.9091 84.1514 15.248C83.5802 15.5868 83.1133 16.0762 82.8017 16.6627C82.4354 17.3482 82.253 18.1168 82.272 18.8938C82.2556 19.6792 82.4378 20.4561 82.8017 21.1523C83.1248 21.7626 83.6063 22.2745 84.1958 22.6342C84.752 22.9711 85.3897 23.1495 86.0399 23.1502C86.7006 23.1507 87.3499 22.9775 87.9225 22.648C88.5136 22.3061 88.9967 21.805 89.3166 21.2017C89.6566 20.4983 89.8332 19.7272 89.8332 18.9459C89.8332 18.1647 89.6566 17.3935 89.3166 16.6901L89.3221 16.6983Z" fill="white"/>
    <path d="M96.9266 15.0518C97.4469 13.9915 98.2581 13.1011 99.2654 12.4845C100.273 11.8679 101.435 11.5505 102.615 11.5693C103.536 11.564 104.445 11.7716 105.272 12.1757C106.065 12.5405 106.757 13.0957 107.284 13.7921V7H110.947V26.0893H107.289V23.9735C106.822 24.6965 106.173 25.2834 105.406 25.6749C104.536 26.1186 103.57 26.3401 102.594 26.3198C101.43 26.3283 100.288 26.0067 99.3004 25.3923C98.2876 24.7536 97.4709 23.8476 96.9403 22.7742C96.3463 21.5674 96.0499 20.2359 96.0758 18.891C96.0469 17.5615 96.3387 16.2446 96.9266 15.0518ZM106.806 16.6983C106.488 16.0939 106.004 15.5924 105.412 15.2521C104.84 14.9201 104.19 14.7467 103.529 14.7499C102.88 14.742 102.24 14.9088 101.677 15.2329C101.097 15.5759 100.623 16.0714 100.305 16.6654C99.9386 17.3509 99.7561 18.1196 99.7751 18.8965C99.7587 19.682 99.9409 20.4588 100.305 21.1551C100.628 21.7653 101.109 22.2773 101.699 22.637C102.255 22.9738 102.893 23.1522 103.543 23.1529C104.204 23.1535 104.853 22.9803 105.426 22.6507C106.017 22.3089 106.5 21.8077 106.82 21.2045C107.16 20.5011 107.336 19.7299 107.336 18.9487C107.336 18.1674 107.16 17.3963 106.82 16.6928L106.806 16.6983Z" fill="white"/>
    <path d="M132.929 8.24043V26.0783H130.58V12.7795L124.644 26.0921H122.997L117.04 12.763V26.1003H114.693V8.26238H117.234L123.821 23.0102L130.423 8.25415L132.929 8.24043Z" fill="white"/>
    <path d="M149.724 19.8982H138.418C138.505 21.2868 138.983 22.3744 139.85 23.1611C140.715 23.9403 141.845 24.3604 143.009 24.3357C143.909 24.368 144.797 24.1196 145.55 23.6249C146.221 23.1651 146.723 22.4995 146.982 21.7286H149.51C149.151 23.0562 148.355 24.2236 147.249 25.041C146.113 25.8917 144.702 26.3171 143.017 26.3171C141.759 26.3386 140.518 26.0271 139.419 25.4142C138.363 24.8127 137.499 23.9227 136.93 22.8483C136.311 21.664 136 20.3425 136.027 19.0063C135.998 17.673 136.298 16.3531 136.903 15.1643C137.46 14.094 138.319 13.2105 139.373 12.6231C140.494 12.0131 141.755 11.7075 143.031 11.7366C144.277 11.7098 145.507 12.0128 146.598 12.6148C147.608 13.1741 148.437 14.0112 148.986 15.0271C149.554 16.0938 149.842 17.2874 149.823 18.4958C149.815 18.9647 149.782 19.4328 149.724 19.8982ZM146.785 15.6829C146.401 15.0469 145.84 14.5359 145.171 14.212C144.469 13.8711 143.696 13.6992 142.915 13.7098C141.801 13.6872 140.721 14.0928 139.897 14.8432C139.062 15.6006 138.585 16.6499 138.464 17.9909H147.391C147.41 17.1799 147.2 16.3799 146.785 15.6829Z" fill="white"/>
    <defs>
        <linearGradient id="paint0_linear_2825_3858" x1="32.3509" y1="4.52068" x2="16.1521" y2="14.8508" gradientUnits="userSpaceOnUse">
            <stop offset="0.09" stop-color="#484FE4"/>
            <stop offset="1" stop-color="#377EFF"/>
        </linearGradient>
        <linearGradient id="paint1_linear_2825_3858" x1="11.1033" y1="33.5302" x2="27.644" y2="23.6961" gradientUnits="userSpaceOnUse">
            <stop offset="0.23" stop-color="#5E64FF"/>
            <stop offset="1" stop-color="#985CD0"/>
        </linearGradient>
        <linearGradient id="paint2_linear_2825_3858" x1="2.58442" y1="2.13985" x2="10.6288" y2="34.7075" gradientUnits="userSpaceOnUse">
            <stop stop-color="#6F64FF"/>
            <stop offset="1" stop-color="#CA5CD0"/>
        </linearGradient>
        <linearGradient id="paint3_linear_2825_3858" x1="38.1103" y1="38.4253" x2="24.5904" y2="5.16745" gradientUnits="userSpaceOnUse">
            <stop offset="0.09" stop-color="#484FE4"/>
            <stop offset="1" stop-color="#00E8FF"/>
        </linearGradient>
    </defs>
</svg>
