<svg width="42" height="41" viewBox="0 0 42 41" fill="none" xmlns="http://www.w3.org/2000/svg">
    <path d="M8.58329 8.93395L20.8698 2.64062L25.9697 6.12294L27.3167 13.6749L19.1958 17.9544C17.4452 18.8807 15.4253 19.021 13.5789 18.3446C11.7326 17.6682 10.2104 16.2303 9.34632 14.3463C9.25289 14.1364 9.16725 13.9266 9.08939 13.7085C8.65337 12.5002 8.25627 11.401 7.96818 10.6206C7.84903 10.3082 7.84651 9.95832 7.96113 9.644C8.07576 9.32969 8.29868 9.07529 8.58329 8.93395Z" fill="url(#paint0_linear_135_8363)"/>
    <path d="M32.8928 32.1871L20.4351 38.1195L15.3974 34.503L14.2373 26.951L22.4906 22.8897C23.3684 22.4557 24.3168 22.2123 25.2819 22.1735C26.2469 22.1347 27.2096 22.3013 28.115 22.6637C29.0203 23.0259 29.8504 23.5771 30.558 24.2853C31.2656 24.9937 31.8368 25.8453 32.2388 26.7917C32.3322 27.0014 32.4101 27.2112 32.4879 27.4293C32.8851 28.6544 33.2666 29.7704 33.5235 30.5508C33.626 30.8593 33.6182 31.1977 33.5016 31.5003C33.3849 31.8029 33.168 32.0477 32.8928 32.1871Z" fill="url(#paint1_linear_135_8363)"/>
    <path d="M5.67209 33.5874L0.0193615 2.60749C-0.0319323 2.31704 0.0195442 2.0164 0.163653 1.76481C0.307761 1.51322 0.534056 1.32889 0.797974 1.24813L2.3552 0.744669C4.50074 0.0466636 6.81557 0.294273 8.79193 1.43317C10.7683 2.57206 12.2448 4.50926 12.8977 6.81984C12.9803 7.09502 13.0479 7.37521 13.1 7.65895L17.7718 32.9077C18.1845 34.8823 19.1141 36.6879 20.4502 38.1102L18.3324 39.1507C17.1912 39.8692 15.9122 40.2953 14.594 40.396C13.2757 40.4968 11.9537 40.2695 10.73 39.7318C9.50625 39.1939 8.41364 38.3602 7.53662 37.2948C6.65962 36.2293 6.02166 34.9609 5.67209 33.5874Z" fill="url(#paint2_linear_135_8363)"/>
    <path d="M35.7572 6.75227L42.1807 37.5561C42.2428 37.8448 42.2021 38.1482 42.0666 38.4062C41.931 38.664 41.7106 38.8578 41.4489 38.9489L39.8916 39.5027C37.7625 40.2628 35.4407 40.0818 33.4351 38.9996C31.4297 37.9173 29.9043 36.0222 29.1935 33.7296C29.1064 33.4546 29.0336 33.1744 28.9755 32.8906L23.6497 7.78438C23.1902 5.82142 22.2172 4.04194 20.8467 2.65741L22.9179 1.54979C24.0428 0.79079 25.315 0.321734 26.6356 0.179136C27.9562 0.0365351 29.2895 0.224222 30.5318 0.72761C31.7742 1.23099 32.8919 2.03649 33.7983 3.08142C34.7045 4.12636 35.3749 5.38255 35.7572 6.75227Z" fill="url(#paint3_linear_135_8363)"/>
    <defs>
        <linearGradient id="paint0_linear_135_8363" x1="36.4771" y1="15.476" x2="17.4967" y2="26.7071" gradientUnits="userSpaceOnUse">
            <stop offset="0.09" stop-color="#484FE4"/>
            <stop offset="1" stop-color="#377EFF"/>
        </linearGradient>
        <linearGradient id="paint1_linear_135_8363" x1="14.1709" y1="40.6845" x2="33.4786" y2="30.032" gradientUnits="userSpaceOnUse">
            <stop offset="0.23" stop-color="#5E64FF"/>
            <stop offset="1" stop-color="#985CD0"/>
        </linearGradient>
        <linearGradient id="paint2_linear_135_8363" x1="4.0398" y1="1.8006" x2="14.4368" y2="40.8444" gradientUnits="userSpaceOnUse">
            <stop stop-color="#6F64FF"/>
            <stop offset="1" stop-color="#CA5CD0"/>
        </linearGradient>
        <linearGradient id="paint3_linear_135_8363" x1="42.2184" y1="45.1225" x2="24.9743" y2="5.77539" gradientUnits="userSpaceOnUse">
            <stop offset="0.09" stop-color="#484FE4"/>
            <stop offset="1" stop-color="#00E8FF"/>
        </linearGradient>
    </defs>
</svg>
